<?xml version="1.0" encoding="utf-8"?>
<!-- Generator: Adobe Illustrator 23.0.3, SVG Export Plug-In . SVG Version: 6.00 Build 0)  -->
<svg version="1.1" id="Camada_1" xmlns="http://www.w3.org/2000/svg" xmlns:xlink="http://www.w3.org/1999/xlink" x="0px" y="0px"
	 viewBox="0 0 142.99 16.18" style="enable-background:new 0 0 142.99 16.18;" xml:space="preserve">
<g>
	<path fill="#ffffff" d="M0,15.22l1.48-0.34V1.26L0.02,0.98V0.24h9.4v4.62H8.64L7.34,1.3H4.76v6.24h2.02L7.24,5.6h0.78v5.08H7.24L6.78,8.6H4.76
		v6.28l1.86,0.34v0.72H0V15.22z M10.1,8.98c0-5.06,2.22-7.04,5.42-7.04c3.68,0,5.16,2.24,5.16,7.18c0,5.02-2.22,7.06-5.42,7.06
		C11.6,16.18,10.1,13.94,10.1,8.98z M17.58,9.16c0-5.58-0.98-6.42-2.12-6.42c-1.16,0-2.28,0.72-2.28,6.22c0,5.56,1,6.44,2.14,6.44
		C16.44,15.4,17.58,14.64,17.58,9.16z M21.32,15.32l1.2-0.28v-12l-1.14-0.22V2.18h5.3v0.64l-1.24,0.22V15h2.16l1.14-3.22h0.62v4.16
		h-8.04V15.32z M30.03,15.32l1.14-0.28V3.08l-1.14-0.26V2.18h5.04v0.64l-1,0.22v5.62h3.04V3.04l-0.94-0.22V2.18h4.92v0.64
		l-1.04,0.22v12l1.14,0.28v0.62h-5.02v-0.62l0.94-0.28V9.6h-3.04v5.44l1,0.28v0.62h-5.04V15.32z M41.85,15.32l1.02-0.28l3.36-12.86
		h1.74l3.88,12.86l1.04,0.28v0.62h-5.36v-0.62l1.24-0.28l-1.08-3.3h-2.92l-0.76,3.3l1.38,0.28v0.62h-3.54V15.32z M47.43,10.8
		l-1.34-4.4l-1.1,4.4H47.43z M56.53,15.32l1.08-0.28v-12l-1.08-0.22V2.18h5.08c3.42,0,5.28,1.64,5.28,7.1c0,4.84-2.26,6.66-5,6.66
		h-5.36V15.32z M61.55,15c1.62,0,2.38-0.88,2.38-5.9c0-5.12-0.88-6.02-2.44-6.02h-0.8V15H61.55z M67.45,15.32l1.28-0.28v-12
		l-1.26-0.22V2.18h8.18v3.98h-0.68l-1.12-3.08h-2.18v5.5h1.72l0.46-1.7h0.62v4.48h-0.62L73.4,9.52h-1.72V15h2.62l1.1-3.06h0.7v4
		h-8.64V15.32z M80.82,15.7v-4.26h0.84l0.68,3.04c0.68,0.38,1.46,0.48,2.26,0.48c1.22,0,2.04-0.88,2.04-1.9
		c0-1.74-1.3-2.68-2.66-3.66c-1.54-1.1-3.18-2.28-3.18-4.76C80.8,1.82,82.9,0,85.74,0c1.08,0,2.04,0.08,2.98,0.28v4.24h-0.78
		L87.18,1.4c-0.54-0.14-0.86-0.18-1.44-0.18c-1.32,0-2.06,0.72-2.06,1.68c0,1.54,1.16,2.3,2.44,3.16c1.56,1.04,3.28,2.2,3.28,4.98
		c0,2.8-2.04,5.14-5.26,5.14C82.76,16.18,81.66,16,80.82,15.7z M89.54,14.68c0-0.88,0.56-1.48,1.42-1.48c0.82,0,1.38,0.6,1.38,1.48
		c0,0.9-0.56,1.5-1.42,1.5C90.1,16.18,89.54,15.58,89.54,14.68z M93.16,15.22l1.46-0.34V1.26l-1.44-0.28V0.24h6.14
		c2.58,0,4.32,1,4.32,4.66c0,2.8-1.42,4.62-4.5,4.62H97.9v5.36l1.78,0.34v0.72h-6.52V15.22z M98.48,8.48c1.06,0,1.68-0.72,1.68-3.62
		c0-2.88-0.44-3.56-1.64-3.56H97.9v7.18H98.48z M102.2,15.32l1.14-0.28l3.36-12.86h1.78l3.88,12.86l1.16,0.28v0.62h-5.46v-0.62
		l1.22-0.28l-1.1-3.3h-2.96l-0.74,3.3l1.42,0.28v0.62h-3.7V15.32z M107.9,10.8l-1.32-4.4l-1.08,4.4H107.9z M113.92,11.76V3.04
		l-1.12-0.22V2.18h5.28v0.64l-1.22,0.22v9.54c0,1.8,0.44,2.64,1.74,2.64c1.78,0,2.34-1.06,2.34-3.04V3.04l-1.18-0.22V2.18h3.18v0.64
		l-1.08,0.22v9.34c0,2.68-1.32,3.8-4.02,3.8C114.74,16.18,113.92,14.96,113.92,11.76z M123.69,15.32l1.2-0.28v-12l-1.12-0.22V2.18
		h5.28v0.64l-1.22,0.22V15h1.98l1.14-3.22h0.66v4.16h-7.92V15.32z M132.35,8.98c0-5.08,2.24-7.04,5.44-7.04
		c3.66,0,5.2,2.24,5.2,7.18c0,5.02-2.26,7.06-5.42,7.06C133.89,16.18,132.35,13.94,132.35,8.98z M139.85,9.16
		c0-5.58-0.96-6.42-2.08-6.42s-2.26,0.72-2.26,6.22c0,5.56,0.96,6.44,2.1,6.44C138.73,15.4,139.85,14.62,139.85,9.16z"/>
</g>
</svg>
